<svg width="379" height="124" viewBox="0 0 379 124" fill="none" xmlns="http://www.w3.org/2000/svg">
<g style="mix-blend-mode:exclusion" opacity="0.94" filter="url(#filter0_f_109_2163)">
<path d="M281.465 33.8899C282.525 23.4511 290.108 16.1716 299.303 12.5901C303.4 10.9886 307.809 10.086 312.196 10.0423L314.923 10.0423C343.552 10.2694 362.493 6.95571 367.941 30.9635C375.872 65.9343 337.363 74.8444 315.428 90.1022L312.188 92.7083H368.101V113.644H280.84C280.84 113.644 281.363 98.4882 281.421 97.9058C282.99 83.2304 286.477 81.7745 298.65 75.1356C311.331 68.2346 325.32 63.27 337.566 55.641C344.8 51.1277 347.923 46.7018 346.558 37.617C345.788 32.5214 339.643 30.8762 335.227 30.4976C329.635 30.0172 314.469 29.8861 309.719 32.0409C305.898 33.7734 304.46 38.9127 304.809 42.8291H281.465C281.668 39.9464 281.174 36.7434 281.465 33.9044V33.8899Z" fill="#DDF3F3"/>
<path d="M268.571 10.041V113.643H245.176V38.9248L230.399 49.5967V29.188L251.64 10.041H268.571Z" fill="#DDF3F3"/>
<path d="M96.5671 62.3062C108.346 57.2309 109.375 41.757 106.068 30.8333C103.399 22.0098 97.1473 16.0594 88.4295 13.405C77.1441 9.96313 50.8021 10.1528 38.5449 11.0716C30.8425 11.6404 20.7321 16.8032 15.9163 22.8703C11.202 28.8061 9.72239 36.9441 10.0415 44.4113H32.7427C32.7862 37.9067 35.7743 33.1376 42.4034 32.2334C49.9027 31.2125 65.7428 31.5187 73.5758 32.0438C81.0897 32.5542 84.9771 33.9835 85.5284 42.2236C86.1231 51.1055 82.7868 52.9139 76.4044 53.8765C74.4026 54.1828 72.3863 54.3286 70.3701 54.3724L45.6236 54.8974V69.7005L70.3701 70.2255C72.3863 70.2693 74.4171 70.4151 76.4044 70.7214C82.7868 71.684 86.1231 73.4924 85.5284 82.3743C84.9771 90.5998 81.0897 92.0437 73.5758 92.5541C65.7428 93.0938 49.9027 93.3854 42.4034 92.3645C35.7598 91.4603 32.7862 86.6912 32.7427 80.1866H10.0415C9.72239 87.6538 11.202 95.8064 15.9163 101.728C20.7321 107.795 28.3202 113.526 38.8563 113.418C38.8563 113.418 78.3918 114.781 88.4295 111.193C97.1473 108.524 103.385 102.588 106.068 93.7646C109.375 82.8555 108.346 67.367 96.5671 62.2917V62.3062Z" fill="#DDF3F3"/>
<path d="M226.763 10.041H196.899L170.414 43.1719L143.928 10.041H114.064L155.489 61.8419L114.064 113.643H143.928L170.414 80.5119L196.899 113.643H226.763L185.338 61.8419L226.763 10.041Z" fill="#DDF3F3"/>
</g>
<defs>
<filter id="filter0_f_109_2163" x="0" y="0" width="379" height="123.672" filterUnits="userSpaceOnUse" color-interpolation-filters="sRGB">
<feFlood flood-opacity="0" result="BackgroundImageFix"/>
<feBlend mode="normal" in="SourceGraphic" in2="BackgroundImageFix" result="shape"/>
<feGaussianBlur stdDeviation="5" result="effect1_foregroundBlur_109_2163"/>
</filter>
</defs>
</svg>
