<svg width="32" height="34" viewBox="0 0 32 34" fill="none" xmlns="http://www.w3.org/2000/svg">
<path d="M1.886 20.8544L2.46234 17.4723C3.14448 13.4728 3.48396 11.4723 4.83403 10.2881C6.18409 9.10547 8.12313 9.10547 11.9996 9.10547H19.9989C23.8754 9.10547 25.8145 9.10547 27.1645 10.2897C28.5146 11.4739 28.8541 13.4728 29.5362 17.4723L30.1126 20.8544C31.0568 26.3886 31.5274 29.1549 30.0762 30.9723C28.6235 32.7897 25.9392 32.7897 20.5753 32.7897H11.4233C6.05777 32.7897 3.37501 32.7897 1.92231 30.9739C0.469615 29.1549 0.943321 26.3886 1.886 20.8544Z" stroke="#D5D9D9" stroke-linecap="round" stroke-linejoin="round"/>
<path d="M8.89307 12.2616L9.23256 7.50899C9.35521 5.79835 10.1213 4.19767 11.3767 3.02913C12.6321 1.86059 14.2835 1.21094 15.9987 1.21094C17.7138 1.21094 19.3652 1.86059 20.6206 3.02913C21.876 4.19767 22.6421 5.79835 22.7648 7.50899L23.1042 12.2616" stroke="#D5D9D9" stroke-linecap="round" stroke-linejoin="round"/>
</svg>
