<svg width="35" height="35" viewBox="0 0 35 35" fill="none" xmlns="http://www.w3.org/2000/svg">
<g clip-path="url(#clip0_124_4234)">
<path d="M25.666 8.16797H27.9994M10.4993 1.16797H24.4994C26.9747 1.16797 29.3487 2.1513 31.099 3.90164C32.8494 5.65198 33.8327 8.02595 33.8327 10.5013V24.5013C33.8327 26.9767 32.8494 29.3506 31.099 31.101C29.3487 32.8513 26.9747 33.8346 24.4994 33.8346H10.4993C8.024 33.8346 5.65003 32.8513 3.89969 31.101C2.14935 29.3506 1.16602 26.9767 1.16602 24.5013V10.5013C1.16602 8.02595 2.14935 5.65198 3.89969 3.90164C5.65003 2.1513 8.024 1.16797 10.4993 1.16797ZM17.4994 24.5013C15.6428 24.5013 13.8624 23.7638 12.5496 22.4511C11.2368 21.1383 10.4993 19.3578 10.4993 17.5013C10.4993 15.6448 11.2368 13.8643 12.5496 12.5516C13.8624 11.2388 15.6428 10.5013 17.4994 10.5013C19.3559 10.5013 21.1363 11.2388 22.4491 12.5516C23.7619 13.8643 24.4994 15.6448 24.4994 17.5013C24.4994 19.3578 23.7619 21.1383 22.4491 22.4511C21.1363 23.7638 19.3559 24.5013 17.4994 24.5013Z" stroke="#D5D9D9"/>
</g>
<defs>
<clipPath id="clip0_124_4234">
<rect width="35" height="35" fill="white"/>
</clipPath>
</defs>
</svg>
