<svg width="25" height="25" viewBox="0 0 25 25" fill="none" xmlns="http://www.w3.org/2000/svg">
<g clip-path="url(#clip0_117_4881)">
<path d="M18.333 5.83398H19.9997M7.49967 0.833984H17.4997C19.2678 0.833984 20.9635 1.53636 22.2137 2.78661C23.464 4.03685 24.1663 5.73254 24.1663 7.50065V17.5007C24.1663 19.2688 23.464 20.9645 22.2137 22.2147C20.9635 23.4649 19.2678 24.1673 17.4997 24.1673H7.49967C5.73156 24.1673 4.03587 23.4649 2.78563 22.2147C1.53539 20.9645 0.833008 19.2688 0.833008 17.5007V7.50065C0.833008 5.73254 1.53539 4.03685 2.78563 2.78661C4.03587 1.53636 5.73156 0.833984 7.49967 0.833984ZM12.4997 17.5007C11.1736 17.5007 9.90182 16.9739 8.96414 16.0362C8.02646 15.0985 7.49967 13.8267 7.49967 12.5007C7.49967 11.1746 8.02646 9.9028 8.96414 8.96512C9.90182 8.02744 11.1736 7.50065 12.4997 7.50065C13.8258 7.50065 15.0975 8.02744 16.0352 8.96512C16.9729 9.9028 17.4997 11.1746 17.4997 12.5007C17.4997 13.8267 16.9729 15.0985 16.0352 16.0362C15.0975 16.9739 13.8258 17.5007 12.4997 17.5007Z" stroke="#D5D9D9"/>
</g>
<defs>
<clipPath id="clip0_117_4881">
<rect width="25" height="25" fill="white"/>
</clipPath>
</defs>
</svg>
