<svg width="84" height="24" viewBox="0 0 84 24" fill="none" xmlns="http://www.w3.org/2000/svg">
<path d="M63.1483 5.52443C63.4009 3.10622 65.2072 1.41988 67.3975 0.590195C68.3733 0.219199 69.4183 0.0505635 70.4633 0.0404455L71.1242 0.0336935C77.9306 0.0336935 82.4496 -0.715036 83.7472 4.84652C85.6365 12.9477 76.4634 15.0118 71.2384 18.5464L70.4668 19.1501H83.7853V24H62.9995C62.9995 24 63.1241 20.489 63.1379 20.3541C63.5116 16.9545 64.3421 16.6172 67.2418 15.0792C70.2626 13.4806 73.5948 12.3305 76.5118 10.5632C78.2351 9.51768 78.979 8.4924 78.6537 6.38784C78.4704 5.2074 77.0067 4.82628 75.9547 4.73859C74.6225 4.62729 71.01 4.59694 69.8785 5.0961C68.9685 5.49745 68.6259 6.688 68.7089 7.59526H63.1483C63.1967 6.92747 63.0791 6.18547 63.1483 5.5278V5.52443Z" fill="#D5D9D9"/>
<path d="M59.9995 0V23H54.4835V6.41232L50.9995 8.78151V4.25071L56.0075 0H59.9995Z" fill="#D5D9D9"/>
<path d="M20.3781 12.0017C23.1509 10.8259 23.3933 7.24132 22.6148 4.71079C21.9865 2.66677 20.5147 1.28832 18.4625 0.673421C15.8058 -0.123916 9.60466 -0.0799864 6.71922 0.132862C4.906 0.264625 2.52594 1.46063 1.39225 2.8661C0.282463 4.24117 -0.0658402 6.1264 0.00928375 7.85621H5.35333C5.36357 6.34938 6.06701 5.24459 7.62754 5.03512C9.39295 4.79863 13.1218 4.86957 14.9658 4.9912C16.7346 5.10945 17.6498 5.44055 17.7795 7.34943C17.9195 9.40696 17.1341 9.8259 15.6317 10.0489C15.1604 10.1198 14.6858 10.1536 14.2111 10.1638L8.38561 10.2854V13.7146L14.2111 13.8362C14.6858 13.8464 15.1638 13.8802 15.6317 13.9511C17.1341 14.1741 17.9195 14.593 17.7795 16.6506C17.6498 18.5561 16.7346 18.8905 14.9658 19.0088C13.1218 19.1338 9.39295 19.2014 7.62754 18.9649C6.06359 18.7554 5.36357 17.6506 5.35333 16.1438H0.00928375C-0.0658402 17.8736 0.282463 19.7622 1.39225 21.1339C2.52594 22.5394 4.906 23.732 6.71922 23.8671C9.60466 24.08 15.8092 24.1239 18.4625 23.3266C20.5147 22.7083 21.983 21.3332 22.6148 19.2892C23.3933 16.7621 23.1509 13.174 20.3781 11.9983V12.0017Z" fill="#D5D9D9"/>
<path d="M49.9995 0H43.1098L36.9995 7.67497L30.8892 0H23.9995L33.5564 12L23.9995 24H30.8892L36.9995 16.325L43.1098 24H49.9995L40.4427 12L49.9995 0Z" fill="#D5D9D9"/>
</svg>
