<svg width="222" height="261" viewBox="0 0 222 261" fill="none" xmlns="http://www.w3.org/2000/svg">
<g opacity="0.6">
<path d="M193 27.8493C190.068 33.699 187.046 39.5217 183.215 44.8388C187.847 52.6294 191.264 61.8011 189.574 71C188.27 69.9709 187.046 68.8154 185.742 67.7863C184.726 66.9828 180.122 64.076 179.789 63.6427C179.456 63.2094 178.584 58.4791 178.08 57.1521C175.4 50.1017 169.896 43.9451 163.448 40.1446C154.392 34.7914 142.395 34.3851 134.229 27.1001C131.36 30.061 128.41 33.0671 124.615 34.8094L122.241 48.8559C121.738 48.8289 121.63 48.2872 121.414 47.9713C119.309 44.8659 117.843 41.1195 115.523 38.2037C113.293 38.2849 110.919 39.1516 108.733 39.3231C101.988 39.8467 94.5869 36.5517 88.0038 35.5045C87.833 34.9177 93.4178 27.6868 94.8387 27.2535C96.0798 26.8744 100.846 28.4722 102.645 28.6347C121 30.2235 125.434 18.1901 135.731 6.86077C137.898 4.47756 140.399 2.36516 142.584 0C142.584 0 141.46 12.9723 141.298 15.0034L148.969 22.6045C158.907 25.7369 168.88 28.2375 176.488 35.8656L192.991 27.8764L193 27.8493Z" fill="#D5D9D9"/>
<path d="M72 25L66.4099 33.6334C64.2523 36.817 61.1675 38.148 57.9223 40.2793C45.1462 48.6789 39.6631 63.8324 45.6544 78.3923C47.1165 81.9356 49.5861 84.9842 51.0572 88.5365L64.8319 91.1895L54.3025 98.2851C55.6577 106.064 56.2194 114.338 54.0796 122L46.4211 115.651C46.537 111.154 46.2517 107.242 45.1105 102.899C41.3214 88.4106 29.633 78.77 32.058 62.5104C33.0209 56.0803 35.3212 49.4613 39.1281 44.2093C35.0894 39.0113 32.1026 33.0758 29 27.2843L46.1358 35.6749C47.9635 32.896 51.1731 31.1243 54.0083 29.4966C56.2372 28.2195 62.2998 25 64.6357 25H71.9911H72Z" fill="#D5D9D9"/>
<path d="M127.99 10.3311C128.268 10.548 122.42 16.6746 121.11 19.0783C109.197 16.8553 95.2392 19.3132 87.0133 28.8737C82.6716 33.916 80.3213 39.9794 77.1906 45.7536L85.4883 58.4949C82.6985 57.8805 79.8907 57.1756 77.1368 56.3985C75.854 56.037 72.2837 54.4466 71.3329 54.7268C66.0134 59.3534 61.7434 65.3445 56.4509 69.9621C55.3834 70.8928 49.2655 75.6189 48.3057 74.9321C47.7136 72.9441 46.368 66.6006 47.3458 64.9921C47.606 64.5583 51.2749 62.1276 52.1002 61.3775C60.7657 53.5069 65.1253 43.3771 70.6152 33.4009C74.4636 26.4068 78.5092 20.9759 84.5374 15.7077L79.4063 0.0296307C79.6754 -0.232424 81.7566 1.32183 82.1871 1.62003C86.3136 4.45745 90.2068 7.63825 94.4139 10.3582C96.9615 9.60818 99.4822 8.70455 102.102 8.1714C106.712 7.22258 110.955 6.7798 115.611 7.33102C119.827 7.82802 124.017 8.88527 127.981 10.3582L127.99 10.3311Z" fill="#D5D9D9"/>
<path d="M211 94.3902C210.955 94.9501 201.063 99.1581 196.488 100.928C195.736 111.005 191.614 122.121 183.027 128L182.275 117.895C185.907 109.497 187.955 98.1106 184.358 89.4237C180.689 80.5562 169.094 75.671 162.336 69.368L148.92 73.7566L156.974 61.7286C152.689 54.631 148.703 47.2083 147 39L157.327 42.6391C160.498 48.1926 163.052 54.1434 167.491 58.8661C175.771 67.6794 188.752 72.375 194.078 83.9334C194.993 85.92 195.437 88.1053 196.434 89.9926L210.991 94.3902H211Z" fill="#D5D9D9"/>
<path d="M99.5187 155.738L107.231 141.659L109.884 154.896C112.103 155.602 114.457 154.57 116.595 154.652C117.723 154.697 119.653 154.905 120.79 155.059C123.604 155.43 126.22 156.39 128.99 156.978C129.296 157.241 122.783 164.412 121.538 164.629C119.409 164.991 116.297 164.511 113.952 164.674C105.319 165.29 96.8486 168.413 88.3059 169.563C76.164 171.202 64.1934 168.232 54.5683 160.618L53.6572 160.41L37.0319 167.698C36.8876 167.11 37.2665 166.865 37.492 166.44C40.2975 161.125 43.5359 155.983 46.9548 151.048C43.7975 145.797 41.6415 140.048 40.4688 134L52.4935 141.65C55.6959 146.82 58.6367 150.704 63.7695 154.072C75.1266 161.532 87.2144 158.898 99.5187 155.738Z" fill="#D5D9D9"/>
<path d="M164.98 128.002C164.953 131.332 165.214 134.681 164.412 137.939C162.952 139.257 161.105 140.277 159.636 141.549C148.209 151.441 144.73 166.757 132.366 175.729L135.628 191L123.066 180.467C120.182 180.756 117.379 181.993 114.478 182.218C107.899 182.742 99.8694 181.478 93.8225 178.852C91.939 178.03 86.9645 175.395 86.0813 173.626C85.7118 172.877 86.7031 173.066 87.0275 173.057C91.173 173.003 95.9763 170.819 99.2296 170.819C100.32 170.819 102.51 171.676 103.844 171.875C117.352 173.843 127.157 167.949 134.268 156.992C134.962 155.918 137.665 151.874 137.854 151.026C138.233 149.347 133.493 136.721 131.825 132.208L144.974 142.154C145.713 142.154 148.993 137.686 149.921 136.784C152.454 134.32 160.438 128.923 163.727 128.092C164.142 127.984 164.565 127.993 164.98 128.011V128.002Z" fill="#D5D9D9"/>
<path d="M75.5732 155.59C73.9463 155.246 64.5012 147.035 62.1241 145.315C52.9231 138.68 37.8019 131.836 32.1078 122.149C28.2755 115.622 25.7538 107.973 25.1211 100.423C22.5543 99.3999 19.9241 98.5309 17.3843 97.4536C14.9892 96.4307 12.5579 94.8464 10 94.3214C10.0633 93.742 10.5604 93.7239 10.9761 93.5791C15.658 91.9315 20.8641 90.7637 25.6906 89.5597C26.2419 88.2742 28.2936 79.1943 28.9263 79.0042C29.7036 78.7689 35.2983 88.4009 35.5333 89.2338C36.2022 91.6599 35.3977 97.3088 35.6147 100.26C35.8316 103.211 36.6721 106.66 37.6212 109.358C42.1855 122.276 54.9838 127.59 65.6219 134.524L78.8179 124.956L73.5576 140.852C76.0883 143.649 79.0077 146.076 81.2764 149.108C81.9452 150.004 85.5153 155.264 84.9369 155.97C84.6386 156.052 77.4712 155.979 75.5732 155.59Z" fill="#D5D9D9"/>
<path d="M169.397 108.885C169.288 105.609 169.397 102.523 169.888 99.2831C170.506 95.1617 172.197 87.1797 174.843 84.0122C175.098 83.7062 180.99 89.2585 181.245 90.5093C181.663 92.507 179.79 97.8973 179.435 100.363C177.835 111.557 182.236 122.968 180.936 134.207C180.199 140.588 178.062 146.59 174.789 152.097L184 167.512C180.454 166.279 177.089 164.533 173.607 163.139C172.306 162.626 168.76 160.997 167.642 161.006C166.623 161.024 162.622 164.146 161.186 164.911C156.085 167.611 149.82 169.582 144 168.844C144.536 168.349 145.037 167.845 145.473 167.251C147.064 165.091 149.001 160.961 150.529 159.305C151.393 158.369 154.011 157.523 155.275 156.767C161.213 153.222 166.632 146.158 168.733 139.634C170.833 133.11 169.751 125.245 168.615 118.685C164.732 115.751 160.44 112.97 156.812 109.74C156.566 109.524 156.066 109.794 156.312 108.885H169.388H169.397Z" fill="#D5D9D9"/>
<path d="M167.39 210.732C168.051 204.283 172.782 199.786 178.519 197.574C181.074 196.585 183.811 196.135 186.548 196.108L188.279 196.09C206.105 196.09 217.941 194.093 221.339 208.924C226.287 230.527 202.263 236.031 188.578 245.457L186.557 247.067H221.439V260H167C167 260 167.326 250.637 167.362 250.278C168.341 241.212 170.516 240.313 178.111 236.211C186.022 231.948 194.75 228.881 202.389 224.169C206.903 221.38 208.851 218.646 207.999 213.034C207.519 209.886 203.685 208.87 200.93 208.636C197.441 208.339 187.98 208.259 185.016 209.59C182.633 210.66 181.736 213.835 181.953 216.254H167.39C167.517 214.473 167.208 212.495 167.39 210.741V210.732Z" fill="#D5D9D9"/>
<path d="M160 197V260H145.291V214.564L136 221.054V208.643L149.355 197H160Z" fill="#D5D9D9"/>
<path d="M54.0476 229.004C61.4015 225.869 62.0445 216.31 59.9796 209.562C58.3132 204.111 54.4099 200.436 48.967 198.796C41.921 196.67 25.4745 196.787 17.8218 197.354C13.0129 197.706 6.70052 200.895 3.69378 204.643C0.750436 208.31 -0.173325 213.337 0.0259171 217.95H14.1993C14.2264 213.932 16.0921 210.986 20.2309 210.427C24.913 209.796 34.8027 209.986 39.6932 210.31C44.3844 210.625 46.8115 211.508 47.1557 216.598C47.527 222.085 45.444 223.202 41.4592 223.797C40.2094 223.986 38.9505 224.076 37.6917 224.103L22.2414 224.428V233.572L37.6917 233.897C38.9505 233.924 40.2184 234.014 41.4592 234.203C45.444 234.798 47.527 235.915 47.1557 241.402C46.8115 246.483 44.3844 247.375 39.6932 247.69C34.8027 248.023 24.913 248.204 20.2309 247.573C16.083 247.014 14.2264 244.068 14.1993 240.05H0.0259171C-0.173325 244.663 0.750436 249.699 3.69378 253.357C6.70052 257.105 13.0129 260.285 17.8218 260.646C25.4745 261.213 41.9301 261.33 48.967 259.204C54.4099 257.555 58.3042 253.889 59.9796 248.438C62.0445 241.699 61.4015 232.131 54.0476 228.995V229.004Z" fill="#D5D9D9"/>
<path d="M134 196H115.451L99 216.467L82.5491 196H64L89.73 228L64 260H82.5491L99 239.533L115.451 260H134L108.27 228L134 196Z" fill="#D5D9D9"/>
</g>
</svg>
