<svg width="25" height="25" viewBox="0 0 25 25" fill="none" xmlns="http://www.w3.org/2000/svg">
<path d="M21.0413 10.5202C21.0413 10.7493 20.8538 10.9379 20.6247 10.9264C19.4003 10.865 18.2045 10.5343 17.1226 9.95768C16.8299 9.80143 16.458 10.0046 16.458 10.3368V16.1452C16.4579 17.3636 16.1018 18.5553 15.4333 19.5739C14.7648 20.5926 13.8132 21.3936 12.6955 21.8785C11.5778 22.3634 10.3427 22.511 9.1422 22.3033C7.94168 22.0955 6.82806 21.5414 5.93831 20.7091C5.04857 19.8767 4.4215 18.8025 4.13422 17.6185C3.84695 16.4345 3.91201 15.1923 4.32139 14.0448C4.73077 12.8972 5.46663 11.8944 6.43845 11.1595C7.41028 10.4247 8.57568 9.98995 9.79134 9.90872C9.84567 9.90585 9.9 9.91421 9.95096 9.93327C10.0019 9.95233 10.0484 9.9817 10.0875 10.0195C10.1266 10.0574 10.1575 10.1028 10.1782 10.1531C10.1989 10.2034 10.2091 10.2575 10.208 10.3118V13.2285C10.208 13.4577 10.0205 13.6421 9.79343 13.6796C9.32331 13.7586 8.88559 13.9704 8.53189 14.2901C8.17818 14.6097 7.92323 15.0238 7.7971 15.4835C7.67097 15.9432 7.67891 16.4294 7.81999 16.8848C7.96107 17.3402 8.22941 17.7457 8.59337 18.0536C8.95732 18.3615 9.40172 18.5589 9.87417 18.6226C10.3466 18.6862 10.8274 18.6135 11.2599 18.4129C11.6924 18.2123 12.0585 17.8922 12.315 17.4905C12.5716 17.0887 12.708 16.6219 12.708 16.1452V3.02018C12.708 2.90968 12.7519 2.80369 12.83 2.72555C12.9082 2.64741 13.0142 2.60352 13.1247 2.60352H16.0413C16.1527 2.60636 16.2591 2.65062 16.3396 2.72767C16.4201 2.80472 16.469 2.90901 16.4768 3.02018C16.5742 4.0876 17.0426 5.08712 17.8006 5.84494C18.5586 6.60276 19.5583 7.07095 20.6257 7.1681C20.8549 7.18893 21.0424 7.37331 21.0424 7.60352L21.0413 10.5202Z" stroke="#D5D9D9" stroke-linecap="round" stroke-linejoin="round"/>
</svg>
