<svg width="35" height="35" viewBox="0 0 35 35" fill="none" xmlns="http://www.w3.org/2000/svg">
<path d="M29.4577 14.7279C29.4577 15.0487 29.1952 15.3127 28.8743 15.2966C27.1602 15.2107 25.4861 14.7476 23.9714 13.9404C23.5616 13.7216 23.041 14.006 23.041 14.4712V22.6029C23.0409 24.3086 22.5423 25.9771 21.6064 27.4031C20.6706 28.8292 19.3383 29.9506 17.7735 30.6295C16.2087 31.3084 14.4796 31.5151 12.7989 31.2242C11.1182 30.9333 9.55909 30.1575 8.31344 28.9923C7.0678 27.827 6.1899 26.3231 5.78772 24.6655C5.38554 23.0078 5.47662 21.2688 6.04975 19.6623C6.62289 18.0557 7.65309 16.6517 9.01364 15.623C10.3742 14.5942 12.0058 13.9855 13.7077 13.8718C13.7837 13.8678 13.8598 13.8795 13.9311 13.9062C14.0025 13.9329 14.0675 13.974 14.1223 14.0269C14.177 14.0799 14.2203 14.1436 14.2493 14.214C14.2783 14.2844 14.2925 14.36 14.291 14.4362V18.5195C14.291 18.8404 14.0285 19.0985 13.7106 19.151C13.0524 19.2617 12.4396 19.5582 11.9444 20.0057C11.4493 20.4531 11.0923 21.0329 10.9157 21.6765C10.7392 22.3201 10.7503 23.0008 10.9478 23.6383C11.1453 24.2758 11.521 24.8436 12.0305 25.2746C12.5401 25.7057 13.1622 25.9821 13.8236 26.0712C14.4851 26.1603 15.1582 26.0585 15.7637 25.7776C16.3691 25.4968 16.8817 25.0488 17.2409 24.4862C17.6001 23.9237 17.791 23.2703 17.791 22.6029V4.22786C17.791 4.07316 17.8525 3.92478 17.9619 3.81539C18.0713 3.70599 18.2196 3.64453 18.3743 3.64453H22.4577C22.6136 3.64851 22.7625 3.71048 22.8752 3.81835C22.988 3.92621 23.0564 4.07223 23.0673 4.22786C23.2036 5.72225 23.8595 7.12158 24.9207 8.18253C25.9819 9.24348 27.3814 9.89894 28.8758 10.0349C29.1966 10.0641 29.4591 10.3222 29.4591 10.6445L29.4577 14.7279Z" stroke="#D5D9D9" stroke-linecap="round" stroke-linejoin="round"/>
</svg>
