<svg width="25" height="25" viewBox="0 0 25 25" fill="none" xmlns="http://www.w3.org/2000/svg">
<path d="M14.583 11.197V7.34698C14.583 6.47927 14.4257 6.30531 13.5622 6.30531L11.1143 6.25011C10.3518 6.25011 9.97054 6.25011 9.81637 6.49698C9.66221 6.74386 9.83304 7.0824 10.1737 7.7574C10.3632 8.1324 10.4653 8.40427 10.4653 8.82511V11.5959C10.4653 12.4709 10.4653 12.9095 10.132 13.0397C9.79867 13.1689 9.52262 12.8751 8.96846 12.2876C7.61429 10.8459 6.90804 9.04594 6.4445 7.08344C6.34867 6.67719 6.30075 6.47406 6.157 6.36156C6.01325 6.24906 5.80804 6.25011 5.39971 6.25011H3.10804C2.60596 6.25011 2.35492 6.25011 2.19762 6.42719C2.04137 6.60531 2.07158 6.8324 2.132 7.28552C2.682 11.3761 6.27887 18.0834 12.9237 18.723C14.1007 18.8355 14.583 18.5178 14.583 17.2282C14.583 16.497 14.5674 15.3157 15.4872 15.1605C15.9695 15.0793 16.2935 15.2511 16.832 15.7022C17.7653 16.4855 18.2549 17.4418 18.5955 18.1678C18.8216 18.6491 18.9893 18.7501 19.5205 18.7501H21.681C22.7726 18.7501 23.0695 18.4834 22.583 17.4584C22.0333 16.3089 21.2549 15.2835 20.2955 14.4449C19.633 13.8751 19.3028 13.5907 19.2851 13.3803C19.2653 13.1709 19.508 12.8741 19.9935 12.2803C20.931 11.1324 22.208 9.33136 22.8039 7.4199C23.0997 6.47198 22.8216 6.25011 21.8622 6.25011H19.9216C18.981 6.25011 18.982 6.21781 18.7601 7.28448C18.3997 9.01469 17.2205 10.6782 16.1122 11.8105C15.5862 12.348 15.2685 12.672 14.9403 12.5397C14.6122 12.4074 14.583 12.0053 14.583 11.197Z" stroke="#D5D9D9" stroke-linecap="round" stroke-linejoin="round"/>
</svg>
