<svg width="35" height="35" viewBox="0 0 35 35" fill="none" xmlns="http://www.w3.org/2000/svg">
<path d="M20.4161 15.6758V10.2858C20.4161 9.07098 20.1959 8.82744 18.9869 8.82744L15.5598 8.75015C14.4923 8.75015 13.9586 8.75015 13.7427 9.09577C13.5269 9.4414 13.7661 9.91536 14.2429 10.8604C14.5084 11.3854 14.6513 11.766 14.6513 12.3551V16.2343C14.6513 17.4593 14.6513 18.0733 14.1846 18.2556C13.7179 18.4364 13.3315 18.0251 12.5556 17.2026C10.6598 15.1843 9.67106 12.6643 9.0221 9.91681C8.88794 9.34806 8.82085 9.06369 8.6196 8.90619C8.41835 8.74869 8.13106 8.75015 7.5594 8.75015H4.35106C3.64815 8.75015 3.29669 8.75015 3.07648 8.99806C2.85773 9.24744 2.90002 9.56536 2.9846 10.1997C3.7546 15.9266 8.79023 25.3168 18.0929 26.2122C19.7409 26.3697 20.4161 25.9249 20.4161 24.1195C20.4161 23.0958 20.3942 21.442 21.6819 21.2247C22.3571 21.111 22.8106 21.3516 23.5646 21.9831C24.8713 23.0797 25.5567 24.4185 26.0336 25.4349C26.35 26.1087 26.5848 26.2501 27.3286 26.2501H30.3531C31.8815 26.2501 32.2971 25.8768 31.6161 24.4418C30.8464 22.8325 29.7567 21.3969 28.4136 20.2229C27.4861 19.4251 27.0238 19.027 26.999 18.7324C26.9713 18.4393 27.3111 18.0237 27.9906 17.1924C29.3031 15.5854 31.0911 13.0639 31.9252 10.3879C32.3394 9.06077 31.95 8.75015 30.6069 8.75015H27.89C26.5731 8.75015 26.5746 8.70494 26.264 10.1983C25.7594 12.6206 24.1086 14.9495 22.5569 16.5347C21.8204 17.2872 21.3756 17.7408 20.9163 17.5556C20.4569 17.3704 20.4161 16.8074 20.4161 15.6758Z" stroke="#D5D9D9" stroke-linecap="round" stroke-linejoin="round"/>
</svg>
